<?xml version="1.0" encoding="iso-8859-1"?>
<!-- Generator: Adobe Illustrator 19.0.0, SVG Export Plug-In . SVG Version: 6.00 Build 0)  -->
<svg version="1.1" id="Capa_1" xmlns="http://www.w3.org/2000/svg" xmlns:xlink="http://www.w3.org/1999/xlink" x="0px" y="0px"
	 viewBox="0 0 346.4 346.4" style="enable-background:new 0 0 346.4 346.4;" xml:space="preserve">
<g>
	<g>
		<path d="M281.91,0c-29.6,0-53.6,24-53.6,53.6V82h-127.2V53.6c0-21.6,17.6-39.2,39.2-39.2c21.6,0,39.2,17.6,39.2,39.2
			c0,4,3.2,7.2,7.2,7.2s7.2-3.2,7.2-7.2c0-29.6-24-53.6-53.6-53.6c-29.6,0-53.6,24-53.6,53.6v182c-0.4,4,3.2,7.6,7.2,7.6
			s7.2-3.2,7.2-7.2v-18h127.6v18c0,4,3.2,7.2,7.2,7.2s7.2-3.2,7.2-7.2V53.6c0-21.6,17.6-39.2,39.2-39.2c21.6,0,38.8,17.6,38.8,39.2
			c0,4,3.2,7.2,7.2,7.2s7.2-3.2,7.2-7.2C335.51,24,311.51,0,281.91,0z M228.71,202.8h-127.6v-25.6h127.6V202.8z M228.71,162.8
			h-127.6v-25.6h127.6V162.8z M228.71,122h-127.6V96.4h127.6V122z"/>
	</g>
</g>
<g>
	<g>
		<path d="M317.51,271.2c-1.6-3.6-6-5.6-9.6-3.6c-36,15.6-53.6,8-72.4,0c-19.2-8-38.8-16.4-73.6,0c-36,15.6-53.6,8-72.4,0
			c-19.2-8-39.2-16.4-74,0c-3.6,1.6-5.2,6-3.6,9.6c1.6,3.6,6,5.2,9.6,3.6c29.2-13.6,44.4-7.2,62,0.4c11.6,4.8,24,10,40.4,10
			c12,0,26-2.8,43.6-10.4c29.2-13.6,44.4-7.2,62,0.4c11.6,4.8,24,10,40.4,10c12,0,26-2.8,43.6-10.4
			C317.11,279.2,319.11,274.8,317.51,271.2z"/>
	</g>
</g>
<g>
	<g>
		<path d="M317.11,326.4c-1.6-3.6-6-5.6-9.6-3.6c-36,15.6-53.6,8-72.4,0c-19.2-8-38.8-16.4-73.6,0c-36,15.6-53.6,8-72.4,0
			c-19.2-8-38.8-16.4-74,0c-3.6,1.6-5.2,6-3.6,9.6c2,3.6,6.4,5.2,10,3.6c29.2-13.6,44.4-7.2,62,0.4c11.6,4.8,24,10,40.4,10
			c12,0,26-2.8,43.6-10.4c29.2-13.6,44.4-7.2,62,0.4c11.6,4.8,24,10,40.4,10c12,0,26-2.8,43.6-10.4
			C317.11,334.4,319.11,330,317.11,326.4z"/>
	</g>
</g>
<g>
</g>
<g>
</g>
<g>
</g>
<g>
</g>
<g>
</g>
<g>
</g>
<g>
</g>
<g>
</g>
<g>
</g>
<g>
</g>
<g>
</g>
<g>
</g>
<g>
</g>
<g>
</g>
<g>
</g>
</svg>
